<svg width="59" height="16" viewBox="0 0 59 16" fill="none" xmlns="http://www.w3.org/2000/svg">
<path d="M3 12H35V14C35 15.1046 34.1046 16 33 16H3V12Z" fill="#16A34A"/>
<path d="M33 6C31.8954 6 31 6.89543 31 8L31 16L33 16C34.1046 16 35 15.1046 35 14L35 6L33 6Z" fill="#16A34A"/>
<path d="M31 10H56V6H33C31.8954 6 31 6.89543 31 8V10Z" fill="#16A34A"/>
<path d="M59 7.5C59 7.22386 58.7761 7 58.5 7H56V9H58.5C58.7761 9 59 8.77614 59 8.5V7.5Z" fill="#DD944E"/>
<path d="M0 13.5C0 13.2239 0.223858 13 0.5 13H3V15H0.5C0.223858 15 0 14.7761 0 14.5V13.5Z" fill="#DD944E"/>
<path d="M3 0H23C24.1046 0 25 0.895431 25 2V4H3V0Z" fill="#2563EB"/>
<path d="M23 -8.74228e-08C24.1046 -3.91405e-08 25 0.895431 25 2L25 16L23 16C21.8954 16 21 15.1046 21 14L21 -1.74846e-07L23 -8.74228e-08Z" fill="#2563EB"/>
<path d="M21 12H56V16H23C21.8954 16 21 15.1046 21 14V12Z" fill="#2563EB"/>
<path d="M0 1.5C0 1.22386 0.223858 1 0.5 1H3V3H0.5C0.223858 3 0 2.77614 0 2.5V1.5Z" fill="#DD944E"/>
<path d="M59 13.5C59 13.2239 58.7761 13 58.5 13H56V15H58.5C58.7761 15 59 14.7761 59 14.5V13.5Z" fill="#DD944E"/>
<path d="M3 6H30V8C30 9.10457 29.1046 10 28 10H3V6Z" fill="#DC2626"/>
<path d="M28 -8.74228e-08C26.8954 -3.91405e-08 26 0.895431 26 2L26 10L28 10C29.1046 10 30 9.10457 30 8L30 -1.74846e-07L28 -8.74228e-08Z" fill="#DC2626"/>
<path d="M26 4H56V0H28C26.8954 0 26 0.895431 26 2V4Z" fill="#DC2626"/>
<path d="M59 1.5C59 1.22386 58.7761 1 58.5 1H56V3H58.5C58.7761 3 59 2.77614 59 2.5V1.5Z" fill="#DD944E"/>
<path d="M0 7.5C0 7.22386 0.223858 7 0.5 7H3V9H0.5C0.223858 9 0 8.77614 0 8.5V7.5Z" fill="#DD944E"/>
</svg>
